<mxfile host="app.diagrams.net" modified="2022-03-09T10:38:21.428Z" agent="5.0 (Macintosh; Intel Mac OS X 10_15_7) AppleWebKit/605.1.15 (KHTML, like Gecko) Version/15.3 Safari/605.1.15" etag="W6NfiyqN_m8D98CyFqpK" version="17.0.0" type="github">
  <diagram id="khl3fYeuzazZo4UqHpZo" name="Page-1">
    <mxGraphModel dx="1186" dy="823" grid="1" gridSize="10" guides="1" tooltips="1" connect="1" arrows="1" fold="1" page="1" pageScale="1" pageWidth="827" pageHeight="1169" math="0" shadow="0">
      <root>
        <mxCell id="0" />
        <mxCell id="1" parent="0" />
        <mxCell id="dJaXxzNZq_Tw1Kgx1o8R-1" value="Mobile App&lt;br&gt;&quot;Grüner Pass&quot;&lt;br&gt;&lt;br&gt;stellt Qr Code zur Verfügung" style="rounded=0;whiteSpace=wrap;html=1;" vertex="1" parent="1">
          <mxGeometry x="440" y="80" width="120" height="160" as="geometry" />
        </mxCell>
        <mxCell id="dJaXxzNZq_Tw1Kgx1o8R-7" style="edgeStyle=orthogonalEdgeStyle;rounded=0;orthogonalLoop=1;jettySize=auto;html=1;" edge="1" parent="1" source="dJaXxzNZq_Tw1Kgx1o8R-2" target="dJaXxzNZq_Tw1Kgx1o8R-1">
          <mxGeometry relative="1" as="geometry" />
        </mxCell>
        <mxCell id="dJaXxzNZq_Tw1Kgx1o8R-2" value="Mobile App&lt;br&gt;&quot;Greencheck&quot;&lt;br&gt;&lt;br&gt;mit QR-Code Scanner" style="rounded=0;whiteSpace=wrap;html=1;" vertex="1" parent="1">
          <mxGeometry x="440" y="370" width="120" height="160" as="geometry" />
        </mxCell>
        <mxCell id="dJaXxzNZq_Tw1Kgx1o8R-4" style="edgeStyle=orthogonalEdgeStyle;rounded=0;orthogonalLoop=1;jettySize=auto;html=1;" edge="1" parent="1" source="dJaXxzNZq_Tw1Kgx1o8R-3" target="dJaXxzNZq_Tw1Kgx1o8R-1">
          <mxGeometry relative="1" as="geometry" />
        </mxCell>
        <mxCell id="dJaXxzNZq_Tw1Kgx1o8R-3" value="Bürger" style="shape=umlActor;verticalLabelPosition=bottom;verticalAlign=top;html=1;outlineConnect=0;" vertex="1" parent="1">
          <mxGeometry x="330" y="130" width="30" height="60" as="geometry" />
        </mxCell>
        <mxCell id="dJaXxzNZq_Tw1Kgx1o8R-6" style="edgeStyle=orthogonalEdgeStyle;rounded=0;orthogonalLoop=1;jettySize=auto;html=1;" edge="1" parent="1" source="dJaXxzNZq_Tw1Kgx1o8R-5" target="dJaXxzNZq_Tw1Kgx1o8R-2">
          <mxGeometry relative="1" as="geometry" />
        </mxCell>
        <mxCell id="dJaXxzNZq_Tw1Kgx1o8R-5" value="Security-Personal" style="shape=umlActor;verticalLabelPosition=bottom;verticalAlign=top;html=1;outlineConnect=0;" vertex="1" parent="1">
          <mxGeometry x="330" y="420" width="30" height="60" as="geometry" />
        </mxCell>
      </root>
    </mxGraphModel>
  </diagram>
</mxfile>
